<?xml version="1.0" encoding="UTF-8"?>
<svg version="1.1" viewBox="0 0 2048 2048" width="512" height="512" xmlns="http://www.w3.org/2000/svg">
<path transform="translate(254,1471)" d="m0 0h1538l17 2 12 5 11 7 12 12 8 14 4 13v23l-4 13-6 12-11 12-9 7-13 6-14 3h-1552l-13-3-12-6-10-8-7-7-8-13-4-11-2-12 1-16 5-16 7-11 10-11 10-7 15-6z"/>
<path transform="translate(254,447)" d="m0 0h1538l17 2 12 5 11 7 12 12 8 14 4 13v23l-4 13-6 12-11 12-9 7-13 6-14 3h-1552l-13-3-12-6-10-8-7-7-8-13-4-11-2-12 1-16 5-16 7-11 10-11 10-7 15-6z"/>
<path transform="translate(595,959)" d="m0 0h1197l17 2 12 5 11 7 12 12 8 14 4 13v23l-4 13-6 12-11 12-9 7-13 6-14 3h-1211l-12-3-16-8-12-11-7-10-7-16-2-13 1-14 5-16 8-13 8-9 10-7 13-6 8-2z"/>
</svg>
