<?xml version="1.0" encoding="UTF-8"?>
<svg version="1.1" viewBox="0 0 2048 2048" width="600" height="600" xmlns="http://www.w3.org/2000/svg">
<path transform="translate(0)" d="m0 0h2048v2048h-2048z" fill="#FCFCFC"/>
<path transform="translate(893,435)" d="m0 0h39l22 2 26 5 26 8 21 9 19 10 12 8 15 11 10 9 8 7 19 19 9 11 11 13 13 18 12 16 2 3 7 1h214l18 2 21 6 19 9 12 8 13 11 9 9 10 14 8 14 7 18 4 18 1 10 1 333 8 10v206l-6 7h-2v312l240 1 10 2 6 5 4 8v10l-4 8-8 6-3 1h-1444l-8-4-5-6-3-8 2-11 7-8 4-2 11-2h77l-12-19-15-26-9-17-15-33-8-19-11-30-12-37-10-37-8-36-7-40-5-40-3-39-1-25v-48l2-45 4-42 5-35 7-37 6-26 6-24 11-36 10-29 13-32 12-26 13-26 13-23 15-24 13-19 10-14 20-25 9-10 7-8 12-13 21-21 11-9 10-9 14-11 18-13 20-14 16-10 15-9 24-14 39-20 29-13 33-13 36-12 28-8 28-7 29-6 31-5z" fill="#FCFCFC"/>
<path transform="translate(893,435)" d="m0 0h39l22 2 26 5 26 8 21 9 19 10 12 8 15 11 10 9 8 7 19 19 9 11 11 13 13 18 12 16 2 3 7 1h214l18 2 21 6 19 9 12 8 13 11 9 9 10 14 8 14 7 18 4 18 1 10 1 333 8 10v206l-6 7h-2v312l240 1 10 2 6 5 4 8v10l-4 8-8 6-3 1h-1444l-8-4-5-6-3-8 2-11 7-8 4-2 11-2h77l-12-19-15-26-9-17-15-33-8-19-11-30-12-37-10-37-8-36-7-40-5-40-3-39-1-25v-48l2-45 4-42 5-35 7-37 6-26 6-24 11-36 10-29 13-32 12-26 13-26 13-23 15-24 13-19 10-14 20-25 9-10 7-8 12-13 21-21 11-9 10-9 14-11 18-13 20-14 16-10 15-9 24-14 39-20 29-13 33-13 36-12 28-8 28-7 29-6 31-5zm-217 195-16 2-14 4-16 8-10 8-7 7-10 15-6 14-3 13-1 12v859l1 2h833l28-1v-864l-2-14-4-13-7-14-9-11-8-8-14-9-11-5-10-3-7-1-44-1z" fill="#D9DADA"/>
<path transform="translate(671,585)" d="m0 0h707l18 2 21 6 19 9 12 8 13 11 9 9 10 14 8 14 7 18 4 18 1 10 1 333 8 10v206l-6 7h-2v312l240 1 10 2 6 5 4 8v10l-4 8-8 6-3 1h-1444l-8-4-5-6-3-8 2-11 7-8 4-2 6-1h243v-290l-4-2-5-6v-121l6-6h2l1-28-5-2-4-4v-122l5-5 3-1v-88l-7-6-1-2v-61l8-7 1-118 3-20 7-21 7-14 8-12 12-14 12-11 15-10 16-8 15-5 15-3zm5 45-16 2-14 4-16 8-10 8-7 7-10 15-6 14-3 13-1 12v859l1 2h833l28-1v-864l-2-14-4-13-7-14-9-11-8-8-14-9-11-5-10-3-7-1-44-1z" fill="#5A5D6B"/>
<path transform="translate(1500,902)" d="m0 0h1v40l9 3 34 16 29 15 24 14 21 14 16 12 14 12 16 15 11 12 11 14 8 10 16 25 14 26 9 19 11 27 12 36 6 20 7 28 4 24 2 20 1 18v32l-2 30-4 28-6 29-8 30-12 36-10 27-13 29-5 9h19v1h-234l-1-1v-310l5-5 3-4v-206l-8-10z" fill="#D9DADA"/>
<path transform="translate(1016,852)" d="m0 0h15l13 4 11 7 7 8 6 12 2 8v24l-3 61-6 129-3 63-1 17-3 9-9 10-8 5-7 2h-14l-10-4-7-6-6-10-2-7-1-8-6-134-6-126v-26l3-10 5-9 7-8 11-7 7-3z" fill="#DE352D"/>
<path transform="translate(957,883)" d="m0 0h2l2 47v24l-34 7-25 7-27 9-29 13-19 10-20 12-12 8-14 10-14 11-14 12-12 11-13 10-7 3-9 1-9-3-9-6-10-10-6-11-1-11 3-10 6-8 13-13 8-7 14-12 17-13 15-11 22-14 20-12 21-11 27-12 24-9 29-9 33-8z" fill="#C6C6C6"/>
<path transform="translate(1089,884)" d="m0 0h8l36 7 36 10 28 10 23 10 25 12 25 14 23 15 17 12 18 14 10 9 11 9 14 14 6 10 2 7-1 10-6 12-11 11-8 5-6 2h-12l-10-5-14-12-7-7-11-9-16-13-19-13-17-11-16-9-23-12-24-10-33-11-30-7-20-4-1-3z" fill="#C6C6C6"/>
<path transform="translate(962 1e3)" d="m0 0 2 1 2 41 1 29-1 1-15 3-26 8-20 8-22 11-19 12-16 12-10 8-13 12-12 9-8 3h-10l-12-6-10-9-7-9-3-7v-12l4-9 6-8 11-11 8-7 15-12 18-13 18-11 18-10 27-13 22-8 33-9z" fill="#C6C6C6"/>
<path transform="translate(1085 1e3)" d="m0 0 25 5 27 8 27 10 29 14 22 13 16 11 11 8 10 8 11 10 8 7 8 9 5 8 1 4v11l-7 14-10 10-10 6-6 2h-8l-9-3-10-8-11-10-11-9-13-10-17-11-16-9-23-11-20-7-25-7-8-3v-12l2-46 1-11z" fill="#C6C6C6"/>
<path transform="translate(966,1126)" d="m0 0h3l1 7 3 49 1 15-20 8-17 9-14 10-16 13-9 7-8 3h-7l-11-4-9-7-8-8-5-8-2-8 1-11 5-10 15-15 13-10 18-12 16-9 19-9 24-8z" fill="#C6C6C6"/>
<path transform="translate(1079,1126)" d="m0 0 17 4 21 8 17 8 17 10 20 14 14 12 9 10 5 9 1 4v7l-4 11-7 9-7 7-10 6-6 2-10-1-10-5-13-11-15-11-13-8-16-8-15-6-1-2 2-13 3-50z" fill="#C6C6C6"/>
<path transform="translate(1015,1270)" d="m0 0h17l12 3 12 7 6 5 8 11 5 11 2 9v13l-3 12-6 11-7 9-13 9-10 4-5 1h-18l-13-4-10-6-8-7-8-12-4-11-1-6v-13l3-12 7-13 7-8 10-7 12-5z" fill="#DE352D"/>
<path transform="translate(951,669)" d="m0 0h147l5 4 3 6v7l-4 6-4 3-9 1h-133l-7-2-5-5-2-8 3-7z" fill="#5A5D6B"/>
<path transform="translate(1499,475)" d="m0 0 12 1 10 5 8 9 4 10v12l-3 7-4 6-8 7-7 3-11 1-9-2-9-6-7-9-2-6v-15l3-8 8-9 10-5z" fill="#DB362E"/>
<path transform="translate(455,1246)" d="m0 0 6 2 3 4-1 6-11 12-10 9 2 4 9 10 5 4 6 8-1 5-4 4h-6l-8-6-7-7-6-7-3-1-18 18-5 3h-6l-4-5 1-7 20-20-1-4-8-7-8-8-4-6v-6l4-4h7l13 12 5 5 3 4 4-1 18-18z" fill="#DA362F"/>
<path transform="translate(499,595)" d="m0 0 3 1-11 9-8 7-2 3h-2v2l-11 9-8 9-7 8-7 7-14 16-6 8-7 8-6 9-4 5-13 19-11 17-6 10-12 21-9 16-8 17-6 12-8 19-5 11-7 18-12 36-8 26-6 26-4 16-7 34-3 19-2 2v-11l7-37 6-26 6-24 11-36 10-29 13-32 12-26 13-26 13-23 15-24 13-19 10-14 20-25 9-10 7-8 12-13 21-21 11-9z" fill="#CACACA"/>
<path transform="translate(1499,489)" d="m0 0 10 1 6 4 4 6v11l-6 8-6 3h-9l-7-4-4-6-1-3v-7l3-6 7-6z" fill="#F8F8F8"/>
<path transform="translate(1600,1260)" d="m0 0h6l6 4 3 5v8l-4 6-4 3-6 1-7-3-4-5-1-2v-7l3-5 5-4z" fill="#DB362F"/>
<path transform="translate(304,912)" d="m0 0 1 3-7 29-4 16-7 34-3 19-2 2v-11l7-37 6-26 6-24z" fill="#CBCBCB"/>
<path transform="translate(608,522)" d="m0 0 3 1-21 12-24 15-17 11-16 11-10 7v-3l20-14 15-10 16-10 22-13z" fill="#CDCDCD"/>
<path transform="translate(1375,431)" d="m0 0 7 1 3 3v7l-4 4-7-1-3-3-1-4 3-5z" fill="#5B5E6C"/>
<path transform="translate(385,915)" d="m0 0 5 2 2 3v6l-6 4-5-1-3-5 2-6z" fill="#5D606D"/>
<path transform="translate(499,595)" d="m0 0 3 1-11 9-8 7-2 3h-2v2l-11 9-8 9-8 7v-3l28-28 11-9z" fill="#CCCDCD"/>
<path transform="translate(290,970)" d="m0 0h1l-1 8-6 35-2 2v-11l6-32z" fill="#CDCECE"/>
<path transform="translate(407,696)" d="m0 0v3l-11 16-6 9-3 1 2-5 12-18 5-5z" fill="#CACACA"/>
<path transform="translate(558,552)" d="m0 0h2v2l-11 7-16 11-10 7v-3l20-14z" fill="#CECECE"/>
<path transform="translate(286,992)" d="m0 0 1 2-3 19-2 2v-11l2-7z" fill="#CACACA"/>
<path transform="translate(458,635)" d="m0 0v3l-15 15h-2l2-4 7-7z" fill="#CACACA"/>
<path transform="translate(468,623)" d="m0 0 2 1-12 12-7 6 2-4z" fill="#CFCFCF"/>
<path transform="translate(441,653)" d="m0 0v3l-12 12v-3l10-11z" fill="#CDCDCD"/>
<path transform="translate(430,666)" d="m0 0v3l-7 8h-3l7-9z" fill="#CACACA"/>
<path transform="translate(304,912)" d="m0 0 1 3-3 9-3 3 2-10z" fill="#CDCECE"/>
<path transform="translate(514,583)" d="m0 0 3 1-13 10v-3z" fill="#CECECE"/>
<path transform="translate(320,862)" d="m0 0 1 2-3 9-3 1 3-11z" fill="#CBCCCC"/>
</svg>
